<?xml version="1.0" standalone="no"?>
<!DOCTYPE svg PUBLIC "-//W3C//DTD SVG 20010904//EN"
 "http://www.w3.org/TR/2001/REC-SVG-20010904/DTD/svg10.dtd">
<svg version="1.0" xmlns="http://www.w3.org/2000/svg"
 width="1280.000000pt" height="640.000000pt" viewBox="0 0 1280.000000 640.000000"
 preserveAspectRatio="xMidYMid meet">
<g transform="translate(0.000000,640.000000) scale(0.100000,-0.100000)"
fill="#000000" stroke="none">
<path d="M3516 5330 c-50 -16 -64 -37 -72 -106 -3 -36 -14 -73 -23 -84 -9 -10
-256 -114 -556 -233 -661 -263 -1047 -424 -1231 -512 -173 -83 -247 -102 -417
-111 -79 -3 -174 -15 -237 -29 -144 -33 -260 -44 -503 -52 l-208 -6 -41 -70
c-40 -70 -41 -70 -23 -99 24 -41 22 -113 -6 -194 -26 -74 -30 -186 -15 -361
l7 -81 -36 -17 c-67 -33 -105 -110 -134 -277 -25 -137 -26 -191 -6 -273 11
-43 13 -87 9 -155 -6 -85 -2 -125 21 -236 3 -12 24 -34 47 -49 71 -47 136
-115 149 -153 15 -48 44 -79 100 -107 125 -64 192 -75 849 -135 239 -22 452
-43 473 -46 l37 -6 0 109 c0 464 211 827 595 1025 347 178 751 165 1070 -35
380 -238 552 -576 531 -1047 -3 -80 -9 -166 -12 -193 l-7 -47 2987 0 c1745 0
2986 4 2986 9 0 5 -8 44 -17 87 -14 62 -18 123 -17 279 0 188 2 205 28 290 53
177 121 291 245 416 196 196 442 323 695 358 255 36 517 -30 751 -187 285
-191 449 -481 471 -830 5 -87 2 -137 -22 -306 l-7 -48 129 7 c195 10 387 34
462 57 82 25 128 55 163 109 46 67 49 138 14 303 -16 73 -16 86 -1 180 8 56
20 151 26 211 6 61 15 140 20 177 22 150 4 300 -51 427 -63 148 -299 264 -814
400 -394 104 -741 174 -1125 225 -612 83 -1136 126 -1529 126 l-234 0 -201
118 c-645 380 -1317 741 -1694 911 -313 141 -661 197 -1380 223 -462 16 -1216
-5 -1784 -51 l-113 -9 -44 29 c-89 59 -234 92 -305 69z m1913 -253 c22 -27 76
-342 146 -847 25 -187 31 -248 22 -257 -10 -10 -134 -9 -577 2 -1370 35 -1666
48 -1775 76 -157 40 -250 113 -316 248 -27 54 -33 81 -37 146 -5 124 10 160
88 213 166 112 461 232 704 286 356 80 982 138 1552 144 141 2 184 -1 193 -11z
m761 -37 c379 -39 735 -97 905 -149 153 -47 331 -127 510 -229 211 -120 517
-336 513 -362 -2 -9 -21 -17 -48 -22 -49 -9 -83 -30 -114 -72 -21 -27 -24 -80
-14 -201 l3 -30 -910 0 -909 0 -173 530 c-94 292 -172 539 -172 549 -1 18 5
19 107 12 59 -4 195 -16 302 -26z"/>
<path d="M2619 3115 c-392 -74 -706 -370 -811 -763 -29 -109 -35 -308 -14
-430 64 -367 330 -676 686 -797 516 -176 1087 88 1289 598 117 295 86 645 -81
917 -136 222 -369 393 -626 462 -102 27 -335 34 -443 13z m390 -295 c223 -62
408 -229 495 -445 156 -390 -54 -844 -453 -980 -413 -140 -850 97 -967 526
-27 97 -25 271 4 373 71 249 269 453 507 521 135 39 283 41 414 5z"/>
<path d="M2929 2714 c-6 -34 5 -301 12 -308 10 -11 221 193 216 209 -11 33
-224 126 -228 99z"/>
<path d="M2595 2692 c-53 -18 -140 -66 -150 -82 -6 -10 210 -205 228 -205 16
0 21 92 12 213 -8 104 -6 103 -90 74z"/>
<path d="M3207 2339 c-53 -60 -97 -114 -97 -119 0 -18 45 -21 175 -13 l130 8
-3 35 c-3 42 -78 200 -95 200 -7 0 -56 -50 -110 -111z"/>
<path d="M2263 2398 c-33 -53 -76 -167 -69 -185 4 -10 39 -13 149 -13 198 0
198 0 66 135 -56 58 -106 105 -110 105 -5 0 -21 -19 -36 -42z"/>
<path d="M2783 2334 c-3 -8 2 -23 11 -32 15 -15 17 -15 32 0 21 21 11 48 -16
48 -11 0 -23 -7 -27 -16z"/>
<path d="M2739 2161 c-32 -33 -37 -67 -14 -110 33 -65 131 -57 160 13 40 94
-73 169 -146 97z"/>
<path d="M2572 2131 c-21 -13 -10 -46 16 -49 27 -4 40 22 22 43 -14 17 -20 18
-38 6z"/>
<path d="M3007 2118 c-22 -12 -22 -35 1 -46 25 -13 42 -4 42 23 0 27 -19 37
-43 23z"/>
<path d="M2238 1983 c-39 -3 -48 -8 -48 -23 0 -53 90 -228 110 -215 23 14 190
217 190 231 0 11 -19 14 -102 12 -57 -1 -124 -3 -150 -5z"/>
<path d="M3165 1973 c-22 -3 -44 -9 -50 -14 -7 -7 27 -45 99 -115 89 -85 112
-102 123 -92 21 17 59 95 73 148 6 25 13 53 16 63 5 16 -4 17 -108 15 -62 -1
-131 -3 -153 -5z"/>
<path d="M2784 1905 c-8 -21 2 -45 19 -45 8 0 20 7 27 15 10 12 10 18 0 30 -7
8 -19 15 -27 15 -7 0 -16 -7 -19 -15z"/>
<path d="M2570 1711 c-118 -129 -116 -125 -79 -152 36 -25 153 -68 188 -69
l24 0 -7 141 c-4 78 -10 148 -13 155 -10 28 -33 13 -113 -75z"/>
<path d="M2940 1774 c-6 -15 -14 -85 -17 -156 l-6 -128 23 0 c59 0 220 58 220
79 0 10 -178 213 -197 224 -9 6 -16 0 -23 -19z"/>
<path d="M10723 3116 c-422 -81 -742 -399 -828 -825 -23 -112 -16 -332 13
-443 49 -183 142 -345 274 -476 317 -317 800 -392 1198 -186 475 245 682 800
484 1301 -50 129 -113 221 -224 333 -147 149 -287 231 -479 282 -99 26 -334
34 -438 14z m370 -292 c241 -62 436 -241 518 -475 57 -160 58 -323 3 -489
-138 -414 -612 -619 -1012 -439 -152 68 -285 196 -358 344 -62 127 -78 197
-78 335 0 139 16 208 81 340 83 169 252 313 438 374 118 38 285 42 408 10z"/>
<path d="M11025 2710 c-10 -16 6 -300 17 -306 9 -6 218 193 218 208 0 16 -95
69 -159 88 -74 23 -68 23 -76 10z"/>
<path d="M10705 2696 c-53 -17 -138 -61 -154 -79 -10 -13 6 -31 100 -116 62
-56 117 -100 123 -98 16 5 19 65 11 195 -8 125 -5 122 -80 98z"/>
<path d="M11307 2341 c-53 -60 -97 -114 -97 -120 0 -18 41 -23 153 -16 159 9
160 9 152 48 -10 49 -84 197 -98 197 -7 0 -57 -49 -110 -109z"/>
<path d="M10370 2410 c-31 -43 -70 -136 -73 -173 l-2 -32 150 0 c134 0 150 2
153 17 2 11 -32 54 -94 118 -53 55 -101 100 -105 100 -4 0 -17 -13 -29 -30z"/>
<path d="M10883 2334 c-3 -8 2 -23 11 -32 15 -15 17 -15 32 0 21 21 11 48 -16
48 -11 0 -23 -7 -27 -16z"/>
<path d="M10839 2161 c-49 -50 -37 -121 27 -147 29 -12 39 -12 68 0 40 17 56
42 56 88 -1 81 -93 117 -151 59z"/>
<path d="M10672 2131 c-20 -12 -10 -46 14 -49 25 -4 40 24 23 44 -13 16 -19
17 -37 5z"/>
<path d="M11093 2104 c-4 -11 1 -22 12 -31 16 -11 21 -11 33 1 8 8 12 22 9 30
-8 21 -46 21 -54 0z"/>
<path d="M10336 1983 l-48 -4 5 -38 c5 -43 48 -134 81 -176 l23 -28 96 113
c54 63 97 120 97 127 0 10 -23 13 -102 11 -57 -1 -125 -3 -152 -5z"/>
<path d="M11261 1971 c-25 -3 -46 -11 -48 -17 -2 -6 45 -57 104 -113 l108
-103 22 29 c25 30 58 110 72 174 l9 39 -112 -2 c-61 0 -131 -4 -155 -7z"/>
<path d="M10880 1905 c-11 -13 -11 -19 3 -32 21 -21 49 -9 45 19 -4 28 -30 35
-48 13z"/>
<path d="M10699 1743 c-84 -89 -139 -152 -139 -161 0 -22 170 -92 223 -92 19
0 19 5 13 133 -8 149 -13 177 -30 177 -6 0 -36 -26 -67 -57z"/>
<path d="M11041 1781 c-14 -25 -31 -273 -20 -285 18 -20 239 46 239 72 0 9
-197 232 -205 232 -2 0 -9 -9 -14 -19z"/>
</g>
</svg>
